<?xml version="1.0" standalone="no"?><!DOCTYPE svg PUBLIC "-//W3C//DTD SVG 1.1//EN" "http://www.w3.org/Graphics/SVG/1.1/DTD/svg11.dtd"><svg t="1593485644665" class="icon" viewBox="0 0 1024 1024" version="1.1" xmlns="http://www.w3.org/2000/svg" p-id="20660" xmlns:xlink="http://www.w3.org/1999/xlink" width="300" height="300"><defs><style type="text/css"></style></defs><path d="M4.608 407.04l509.952 337.92c-2.048 20.48-4.096 40.96-5.632 61.44-104.448-76.288-208.384-152.576-312.832-228.864-7.68-5.632-20.48-8.192-29.184-11.264-1.024 56.832-2.56 113.664-3.584 169.984 107.008 74.24 212.992 155.648 323.584 223.744 18.432 11.264 36.352 12.8 54.272 0.512 107.008-77.312 214.016-154.112 320.512-231.424V522.24c52.224-33.792 104.448-67.584 156.16-101.376 9.216-6.144 7.168-30.208-1.536-36.352-155.648-107.52-310.784-215.04-466.432-322.56-18.432-12.8-50.688-7.168-68.608 4.608C324.608 167.424 167.936 268.288 11.776 369.152c-4.096 5.12-7.68 10.752-11.776 15.872 1.536 7.68 3.072 14.848 4.608 22.016z m361.984-168.96l145.92 91.648V230.4l242.176 158.72-242.176 164.352V452.096l-145.92 103.424v-317.44z m0 0" p-id="20661"></path></svg>