<?xml version="1.0" standalone="no"?><!DOCTYPE svg PUBLIC "-//W3C//DTD SVG 1.1//EN" "http://www.w3.org/Graphics/SVG/1.1/DTD/svg11.dtd"><svg t="1593482145274" class="icon" viewBox="0 0 1024 1024" version="1.1" xmlns="http://www.w3.org/2000/svg" p-id="5259" xmlns:xlink="http://www.w3.org/1999/xlink" width="300" height="300"><defs><style type="text/css"></style></defs><path d="M128 224h768a64 64 0 0 1 64 64v544a64 64 0 0 1-64 64H128a64 64 0 0 1-64-64V288a64 64 0 0 1 64-64z m13.184 153.888l314.336 228.608a96 96 0 0 0 112.96 0l314.336-228.608a32 32 0 0 0-37.632-51.776l-314.368 228.64a32 32 0 0 1-37.632 0L178.816 326.08a32 32 0 0 0-37.632 51.776z" p-id="5260"></path></svg>