<?xml version="1.0" standalone="no"?><!DOCTYPE svg PUBLIC "-//W3C//DTD SVG 1.1//EN" "http://www.w3.org/Graphics/SVG/1.1/DTD/svg11.dtd"><svg t="1603077858426" class="icon" viewBox="0 0 1024 1024" version="1.1" xmlns="http://www.w3.org/2000/svg" p-id="4894" xmlns:xlink="http://www.w3.org/1999/xlink" width="200" height="200"><defs><style type="text/css"></style></defs><path d="M514.9 683.2c-170.5 0-309.1-138.7-309.1-309.1S344.4 64.9 514.9 64.9 824 203.6 824 374 685.4 683.2 514.9 683.2z m0-566.3c-141.8 0-257.1 115.3-257.1 257.1s115.3 257.1 257.1 257.1S772 515.8 772 374 656.7 116.9 514.9 116.9z" p-id="4895"></path><path d="M404.8 958.9L79.5 771.1l157.4-272.5 45 26L150.6 752l235.2 135.8 140.1-242.6 45 26z" p-id="4896"></path><path d="M618.8 959.1L495 736.2l45.5-25.2 98.1 176.6L873.4 752 737.1 515.9l45-26 162.4 281.2zM514.9 546.7c-95.2 0-172.7-77.5-172.7-172.7 0-95.2 77.5-172.7 172.7-172.7S687.6 278.8 687.6 374c0 95.3-77.5 172.7-172.7 172.7z m0-293.3c-66.5 0-120.7 54.1-120.7 120.7 0 66.5 54.1 120.7 120.7 120.7S635.6 440.6 635.6 374c0-66.5-54.2-120.6-120.7-120.6z" p-id="4897"></path></svg>