<?xml version="1.0" standalone="no"?><!DOCTYPE svg PUBLIC "-//W3C//DTD SVG 1.1//EN" "http://www.w3.org/Graphics/SVG/1.1/DTD/svg11.dtd"><svg t="1602745323580" class="icon" viewBox="0 0 1024 1024" version="1.1" xmlns="http://www.w3.org/2000/svg" p-id="2526" xmlns:xlink="http://www.w3.org/1999/xlink" width="200" height="200"><defs><style type="text/css"></style></defs><path d="M516.48 0h-4.48A384 384 0 0 0 132.48 359.04a384 384 0 0 0 142.72 295.04 212.48 212.48 0 0 1 85.12 133.12l16 119.68A133.12 133.12 0 0 0 508.16 1024H516.48a133.12 133.12 0 0 0 131.84-115.2l15.36-119.68a192 192 0 0 1 85.76-128 369.92 369.92 0 0 0 142.08-291.84A380.16 380.16 0 0 0 516.48 0z m0 960h-8.32a69.12 69.12 0 0 1-68.48-59.52l-12.8-93.44h169.6l-12.16 93.44A69.12 69.12 0 0 1 516.48 960z m-14.72-216.96l-64-263.04A288.64 288.64 0 0 1 580.48 480l-54.4 263.04zM708.48 611.2a290.56 290.56 0 0 0-101.12 131.84h-16L644.48 502.4l19.84 9.6a31.36 31.36 0 0 0 16.64 4.48 32 32 0 0 0 16.64-59.52A358.4 358.4 0 0 0 324.48 460.8a32 32 0 0 0 33.92 51.2 215.68 215.68 0 0 1 21.76-12.16l55.68 241.28h-20.48a326.4 326.4 0 0 0-99.2-136.32A316.16 316.16 0 0 1 196.48 360.96 320 320 0 0 1 512 64H516.48a315.52 315.52 0 0 1 311.68 305.92A306.56 306.56 0 0 1 708.48 611.2z" p-id="2527"></path></svg>