<?xml version="1.0" standalone="no"?><!DOCTYPE svg PUBLIC "-//W3C//DTD SVG 1.1//EN" "http://www.w3.org/Graphics/SVG/1.1/DTD/svg11.dtd"><svg t="1593482198889" class="icon" viewBox="0 0 1024 1024" version="1.1" xmlns="http://www.w3.org/2000/svg" p-id="7281" xmlns:xlink="http://www.w3.org/1999/xlink" width="300" height="300"><defs><style type="text/css"></style></defs><path d="M597.333333 683.946667l-4.48 5.12-29.44 91.093333c-5.12 16 3.413333 24.746667 18.986667 19.413333l85.333333-28.373333 8.96-10.24a4.266667 4.266667 0 0 1 1.92-3.2 9.173333 9.173333 0 0 0 3.626667-12.16l-70.4-65.92a11.946667 11.946667 0 0 0-13.866667 4.693333z m-335.786666 208.213333h-38.613334A38.826667 38.826667 0 0 1 184.533333 853.333333V170.666667a39.253333 39.253333 0 0 1 38.826667-39.253334h38.4z m53.973333 0V131.84h485.546667A38.826667 38.826667 0 0 1 839.466667 170.666667v237.013333L730.026667 533.333333l-85.333334 96.853334a12.373333 12.373333 0 0 0 3.2 14.933333v1.28l59.306667 54.4a17.92 17.92 0 0 0 21.333333 0l1.706667-1.066667 73.173333-83.626666L837.973333 576l-1.066666 277.333333a39.253333 39.253333 0 0 1-38.826667 39.253334H315.52z" p-id="7282"></path></svg>