<?xml version="1.0" standalone="no"?><!DOCTYPE svg PUBLIC "-//W3C//DTD SVG 1.1//EN" "http://www.w3.org/Graphics/SVG/1.1/DTD/svg11.dtd"><svg t="1593586581233" class="icon" viewBox="0 0 1024 1024" version="1.1" xmlns="http://www.w3.org/2000/svg" p-id="3666" xmlns:xlink="http://www.w3.org/1999/xlink" width="300" height="300"><defs><style type="text/css"></style></defs><path d="M960 512c0-59.5-40.9-109.7-96.1-124v68.6c-9.4-5.5-20.4-8.6-32-8.6-35.3 0-64.1 28.7-64.1 64s28.7 64 64.1 64c11.7 0 22.6-3.1 32-8.6V636c-10.2 2.6-21 4.1-32 4.1-70.7 0-128.1-57.4-128.1-128s57.5-128 128.1-128c11.1 0 21.8 1.4 32 4V192c0-52.9-41.8-96-93.1-96H221.2c-51.3 0-93.1 43.1-93.1 96v159.5h128.1v64H128.1V352H64v64h64.1v191.5h128.1v64H127.1V608H64v64h64.1v160c0 52.9 41.8 96 93.1 96h549.6c51.3 0 93.1-43.1 93.1-96V635.9C919.1 621.7 960 571.5 960 512zM320.3 288h384.4v64H320.3v-64z m0 192h318.4v64H320.3v-64z m384.4 256H320.3v-64h384.4v64z m164.4-276z m4.9 3.9l-0.1-0.1s0.1 0 0.1 0.1zM869.1 564z m4.9-3.9l-0.1 0.1s0.1 0 0.1-0.1z m21.9-45.2c0-1 0.1-1.9 0.1-2.9s0-2-0.1-2.9c0 1 0.1 1.9 0.1 2.9s-0.1 2-0.1 2.9z m-17.7 41.2l0.3-0.3-0.3 0.3z m1.6-1.7l0.1-0.1-0.1 0.1z m2.3-2.8c0.2-0.2 0.3-0.4 0.5-0.6-0.2 0.2-0.3 0.4-0.5 0.6z m1.5-1.9c0.2-0.2 0.4-0.5 0.5-0.7-0.2 0.2-0.3 0.4-0.5 0.7z m2-2.9c0.2-0.3 0.4-0.6 0.6-1-0.2 0.4-0.4 0.7-0.6 1z m1.3-2.2c0.3-0.4 0.5-0.9 0.8-1.4-0.2 0.5-0.5 1-0.8 1.4z m1.7-2.9c0.2-0.5 0.5-0.9 0.7-1.4-0.2 0.5-0.5 0.9-0.7 1.4z m1.2-2.5c0.3-0.6 0.6-1.3 0.9-1.9-0.3 0.7-0.6 1.3-0.9 1.9z m1.3-2.9c0.2-0.6 0.5-1.2 0.7-1.8-0.2 0.6-0.4 1.2-0.7 1.8z m1.1-2.8c0.3-0.8 0.5-1.6 0.8-2.4-0.3 0.9-0.5 1.7-0.8 2.4z m1-2.9c0.2-0.7 0.4-1.5 0.6-2.2-0.2 0.8-0.4 1.5-0.6 2.2z m0.8-3c0.2-0.9 0.4-1.8 0.6-2.6-0.2 0.8-0.4 1.7-0.6 2.6z m0.7-2.9c0.2-0.8 0.3-1.7 0.5-2.5-0.2 0.8-0.4 1.6-0.5 2.5z m0.5-3.3c0.1-0.9 0.3-1.9 0.4-2.8-0.1 0.9-0.2 1.8-0.4 2.8z m0.4-3c0.1-0.9 0.2-1.9 0.2-2.8 0 1-0.1 1.9-0.2 2.8z m-17.4-50.5l0.3 0.3-0.3-0.3z m1.6 1.7l0.1 0.1-0.1-0.1z m2.3 2.8c0.2 0.2 0.3 0.4 0.5 0.6-0.2-0.2-0.3-0.4-0.5-0.6z m1.5 1.9c0.2 0.2 0.4 0.5 0.5 0.7-0.2-0.2-0.3-0.4-0.5-0.7z m2 2.9c0.2 0.3 0.4 0.7 0.6 1-0.2-0.4-0.4-0.7-0.6-1z m1.3 2.2c0.3 0.4 0.5 0.9 0.8 1.4-0.2-0.5-0.5-1-0.8-1.4z m1.7 2.9c0.2 0.5 0.5 0.9 0.7 1.4-0.2-0.5-0.5-0.9-0.7-1.4z m1.2 2.5c0.3 0.6 0.6 1.3 0.9 1.9-0.3-0.7-0.6-1.3-0.9-1.9z m1.3 2.9c0.2 0.6 0.5 1.2 0.7 1.8-0.2-0.6-0.4-1.2-0.7-1.8z m1.1 2.8c0.3 0.8 0.5 1.6 0.8 2.4-0.3-0.9-0.5-1.7-0.8-2.4z m1 2.9c0.2 0.7 0.4 1.5 0.6 2.2-0.2-0.8-0.4-1.5-0.6-2.2z m0.8 3c0.2 0.9 0.4 1.8 0.6 2.6-0.2-0.8-0.4-1.7-0.6-2.6z m0.7 2.9c0.2 0.8 0.3 1.7 0.5 2.5-0.2-0.8-0.4-1.6-0.5-2.5z m0.5 3.3c0.1 0.9 0.3 1.9 0.4 2.8-0.1-0.9-0.2-1.8-0.4-2.8z m0.4 3c0.1 0.9 0.2 1.9 0.2 2.8 0-1-0.1-1.9-0.2-2.8z" p-id="3667"></path></svg>