<?xml version="1.0" standalone="no"?><!DOCTYPE svg PUBLIC "-//W3C//DTD SVG 1.1//EN" "http://www.w3.org/Graphics/SVG/1.1/DTD/svg11.dtd"><svg t="1593486035259" class="icon" viewBox="0 0 1024 1024" version="1.1" xmlns="http://www.w3.org/2000/svg" p-id="30135" xmlns:xlink="http://www.w3.org/1999/xlink" width="300" height="300"><defs><style type="text/css"></style></defs><path d="M966.298413 250.311111c25.193651-39.822222 56.888889-89.396825 57.701587-144.660317 0-18.692063-3.250794-45.511111-22.755556-65.828572-21.130159-21.942857-56.888889-30.069841-90.209523-20.31746-13.815873 4.063492-26.006349 11.377778-35.758731 18.692063V16.253968c0-8.939683-7.314286-16.253968-17.066666-16.253968h-690.793651c-9.752381 0-17.066667 7.314286-17.066667 16.253968v22.755556c-10.565079-8.126984-22.755556-15.44127-36.571428-19.504762-32.507937-9.752381-69.079365-1.625397-90.209524 20.31746C3.250794 60.139683 0 86.95873 0 105.650794c0.812698 55.263492 32.507937 104.838095 57.701587 144.660317l91.022223 143.034921c7.314286 10.565079 3.250794 25.193651-8.126985 31.695238-0.812698 0.812698-1.625397 0.812698-2.438095 1.625397-8.126984 4.063492-17.879365 1.625397-22.755555-5.688889-2.438095-4.063492-3.250794-8.126984-2.438096-13.003175 0.812698-4.87619 4.063492-8.126984 7.314286-10.565079 8.126984-4.87619 9.752381-15.44127 4.876191-22.755556-4.87619-7.314286-16.253968-9.752381-23.568254-4.87619-11.377778 7.314286-19.504762 18.692063-22.755556 31.695238-2.438095 13.003175 0 26.006349 7.314286 37.384127 9.752381 14.628571 26.819048 22.755556 43.885714 22.755555 9.752381 0 19.504762-2.438095 28.444444-8.126984 0.812698-0.812698 1.625397-1.625397 2.438096-1.625397 2.438095-1.625397 4.87619-3.250794 6.501587-4.87619C215.365079 585.142857 351.085714 684.292063 512 684.292063c160.101587 0 296.634921-99.149206 343.771429-237.307936 1.625397 1.625397 4.063492 3.250794 5.688888 4.87619 0.812698 0.812698 1.625397 1.625397 2.438096 1.625397 8.939683 5.688889 18.692063 8.126984 28.444444 8.126984 3.250794 0 7.314286 0 10.56508-0.812698 13.815873-2.438095 25.193651-10.565079 33.320634-21.130159 7.314286-11.377778 10.565079-24.380952 7.314286-37.384127-2.438095-13.003175-10.565079-24.380952-22.755555-31.695238-8.126984-4.87619-18.692063-3.250794-23.568254 4.876191-4.87619 7.314286-3.250794 17.879365 4.87619 22.755555 4.063492 2.438095 6.501587 6.501587 7.314286 10.56508 0.812698 4.063492 0 8.939683-2.438095 13.003174-4.87619 7.314286-15.44127 9.752381-22.755556 5.688889-0.812698-0.812698-1.625397-0.812698-2.438095-1.625397-11.377778-7.314286-14.628571-21.130159-8.126984-31.695238l92.647619-143.847619z m-816.761905 81.269841l-62.577778-98.336508c-24.380952-38.196825-52.012698-81.269841-52.825397-127.59365 0-18.692063 4.87619-34.133333 13.815873-43.073016 12.190476-12.190476 34.133333-17.066667 54.450794-10.56508 21.130159 6.501587 37.384127 21.942857 47.136508 35.758731v243.809523z m725.739682-246.247619c10.565079-13.003175 26.006349-28.444444 46.32381-34.133333 20.31746-5.688889 42.260317-1.625397 54.450794 10.565079 8.939683 9.752381 13.815873 25.193651 13.815873 43.073016-0.812698 46.32381-28.444444 89.396825-52.825397 127.593651l-61.76508 96.711111v-243.809524zM608.711111 778.565079v-65.828571c-30.88254 7.314286-63.390476 11.377778-96.711111 11.377778-33.320635 0-65.015873-4.063492-96.711111-11.377778v65.828571h-97.52381l-48.761904 245.434921h484.368254l-48.761905-245.434921H608.711111z" p-id="30136"></path></svg>