<?xml version="1.0" standalone="no"?><!DOCTYPE svg PUBLIC "-//W3C//DTD SVG 1.1//EN" "http://www.w3.org/Graphics/SVG/1.1/DTD/svg11.dtd"><svg t="1593486095967" class="icon" viewBox="0 0 1024 1024" version="1.1" xmlns="http://www.w3.org/2000/svg" p-id="31366" xmlns:xlink="http://www.w3.org/1999/xlink" width="300" height="300"><defs><style type="text/css"></style></defs><path d="M540.573023 500.999386 540.573023 282.41576C532.572577 281.158547 524.915006 268.586417 516.514538 268.586417L511.71427 268.586417C501.88515 268.586417 492.798929 281.672861 483.426977 283.101512L483.426977 500.999386 26.258608 500.999386 26.258608 326.703946C26.258608 294.645014 51.860037 268.586417 83.404654 268.586417L188.153357 268.586417C153.579999 251.614041 134.77895 228.698476 125.121268 205.95435 97.176851 140.179251 139.464925 61.089123 193.410793 20.058262 217.240694 1.88582 248.328143-2.800156 285.587365 6.000335 364.620347 24.744238 463.654445 105.148725 514.114404 168.066522 564.574362 105.148725 663.60846 24.744238 742.641442 6.000335 779.900664-2.74301 810.988113 1.942966 834.818014 20.058262 888.763882 61.089123 931.051956 140.179251 903.107539 205.95435 893.449858 228.755623 874.47737 251.614041 839.78972 268.586417L940.595346 268.586417C972.139963 268.586417 997.741392 294.645014 997.741392 326.703946L997.741392 500.999386 540.573023 500.999386ZM272.672359 62.57492C264.786205 60.746247 257.700095 59.774764 251.299738 59.774764 241.527764 59.774764 233.584463 62.060606 227.641275 66.575144 191.524973 94.062392 162.09476 146.40817 177.581338 182.924494 186.267537 203.325632 233.698756 265.2148 484.055583 224.412523 453.539595 175.6098 349.419499 80.804509 272.672359 62.57492ZM850.647469 182.924494C866.134048 146.40817 836.76098 94.062392 800.587533 66.575144 790.872705 59.203304 775.614711 57.888945 755.613595 62.57492 678.409286 80.861655 573.71773 176.46699 543.773202 225.098276 794.187176 265.957699 841.904124 203.439924 850.647469 182.924494ZM483.426977 1023.885708 140.5507 1023.885708C109.006083 1023.885708 83.404654 997.884257 83.404654 965.825325L83.404654 559.116915 483.426977 559.116915 483.426977 1023.885708ZM940.595346 965.825325C940.595346 997.884257 914.993917 1023.885708 883.4493 1023.885708L540.573023 1023.885708 540.573023 559.116915 940.595346 559.116915 940.595346 965.825325Z" p-id="31367"></path></svg>