<?xml version="1.0" standalone="no"?><!DOCTYPE svg PUBLIC "-//W3C//DTD SVG 1.1//EN" "http://www.w3.org/Graphics/SVG/1.1/DTD/svg11.dtd"><svg t="1593483484084" class="icon" viewBox="0 0 1024 1024" version="1.1" xmlns="http://www.w3.org/2000/svg" p-id="9751" xmlns:xlink="http://www.w3.org/1999/xlink" width="300" height="300"><defs><style type="text/css"></style></defs><path d="M867.632673 605.464695 867.632673 393.668964c0-196.453301-159.223375-355.630626-355.632673-355.630626-196.451254 0-355.632673 159.221328-355.632673 355.630626l0 211.768101c-30.054503 14.266935-50.802036 44.886303-50.802036 80.359212 0 49.001017 39.814798 88.905866 88.925309 88.905866l635.013685 0c49.173956 0 88.929402-39.803541 88.929402-88.905866C918.433686 650.405233 897.665687 619.760283 867.632673 605.464695z" p-id="9752"></path><path d="M640.827087 807.884894l-257.765715 0.25992c-22.839171-0.25992-23.473621 25.402553-23.473621 25.402553 0 84.176145 68.237127 152.413272 152.412248 152.413272s152.412248-68.237127 152.412248-152.413272C664.411225 833.547367 664.411225 808.144814 640.827087 807.884894z" p-id="9753"></path></svg>