<?xml version="1.0" standalone="no"?><!DOCTYPE svg PUBLIC "-//W3C//DTD SVG 1.1//EN" "http://www.w3.org/Graphics/SVG/1.1/DTD/svg11.dtd"><svg t="1593485435676" class="icon" viewBox="0 0 1024 1024" version="1.1" xmlns="http://www.w3.org/2000/svg" p-id="18911" xmlns:xlink="http://www.w3.org/1999/xlink" width="300" height="300"><defs><style type="text/css"></style></defs><path d="M690.49344 296.66304c-4.83328-0.74752-9.65632 0-14.29504 1.50528 1.56672-29.48096 2.31424-61.02016 0.24576-84.41856-3.51232-37.87776-26.83904-78.01856-48.97792-94.19776-35.24608-25.58976-89.74336-37.376-110.31552-37.376-20.44928 0-75.06944 11.78624-110.25408 37.376-22.20032 16.1792-45.4656 56.32-48.91648 94.19776-2.12992 23.3984-1.3824 54.9376 0.18432 84.41856-4.63872-1.50528-9.46176-2.26304-14.35648-1.50528-14.17216 2.12992-23.9616 16.25088-16.9984 50.61632 6.90176 34.42688 16.93696 57.26208 33.87392 55.94112 1.00352-0.06144 1.56672-0.44032 2.5088-0.62464 5.59104 43.71456 48.7936 112.88576 86.23104 137.59488 9.53344 13.35296 36.31104 24.5248 67.7376 23.58272 31.42656 0.94208 58.32704-10.21952 67.7376-23.58272 37.56032-24.70912 80.65024-93.88032 86.23104-137.59488 0.94208 0.18432 1.50528 0.5632 2.5088 0.62464 16.9984 1.32096 27.0336-21.51424 33.87392-55.94112 7.00416-34.37568-2.77504-48.4864-17.01888-50.61632zM806.144 660.16256c-64.1536-32.11264-160.55296-64.21504-160.55296-64.21504-11.47904 70.99392-42.1376 153.40544-84.92032 225.14688a1344.64512 1344.64512 0 0 0-11.34592-122.4192c10.84416-17.05984 17.94048-31.10912 22.51776-42.27072 5.38624-13.60896-4.25984-28.34432-18.56512-28.34432h-72.12032c-14.42816 0-23.90016 14.92992-18.56512 28.34432 4.57728 11.1616 11.66336 25.21088 22.51776 42.27072-6.27712 44.40064-9.59488 86.29248-11.4176 122.4192-42.77248-71.61856-73.50272-154.15296-84.97152-225.14688 0 0-96.32768 32.11264-160.55296 64.21504-64.1536 32.11264-96.32768 75.25376-96.32768 160.55296v48.16896a80.2816 80.2816 0 0 0 80.34304 80.27136h609.95584a80.2816 80.2816 0 0 0 80.34304-80.27136v-48.16896c-0.01024-85.2992-32.18432-128.45056-96.33792-160.55296z" p-id="18912"></path></svg>